<svg width="76" height="88" viewBox="0 0 76 88" fill="none" xmlns="http://www.w3.org/2000/svg">
<g clip-path="url(#clip0_704_14827)">
<path d="M0.932434 5.67763V11.3618V17.0394V22.717V28.4012V34.0788V39.763V45.4406V51.1182V56.8024V62.48V68.1576V73.8418H6.61006V68.1576V62.48V56.8024V51.1182V45.4406V39.763V34.0788V28.4012V22.717V17.0394V11.3618V5.67763V0H0.932434V5.67763Z" fill="#57595B"/>
<path d="M12.2942 5.67763V11.3618V17.0394V22.717V28.4012V34.0788V39.763V45.4406V51.1182V56.8024V62.48V68.1576V73.8418H17.9718V68.1576V62.48V56.8024V51.1182V45.4406V39.763V34.0788V28.4012V22.717V17.0394V11.3618V5.67763V0H12.2942V5.67763Z" fill="#57595B"/>
<path d="M23.6495 5.67763V11.3618V17.0394V22.717V28.4012V34.0788V39.763V45.4406V51.1182V56.8024V62.48V68.1576V73.8418H29.3336V68.1576V62.48V56.8024V51.1182V45.4406V39.763V34.0788V28.4012V22.717V17.0394V11.3618V5.67763V0H23.6495V5.67763Z" fill="#57595B"/>
<path d="M35.0112 5.67763V11.3618V17.0394V22.717V28.4012V34.0788V39.763V45.4406V51.1182V56.8024V62.48V68.1576V73.8418H40.6954V68.1576V62.48V56.8024V51.1182V45.4406V39.763V34.0788V28.4012V22.717V17.0394V11.3618V5.67763V0H35.0112V5.67763Z" fill="#57595B"/>
<path d="M46.373 5.67763V11.3618V17.0394V22.717V28.4012V34.0788V39.763V45.4406V51.1182V56.8024V62.48V68.1576V73.8418H52.0507V68.1576V62.48V56.8024V51.1182V45.4406V39.763V34.0788V28.4012V22.717V17.0394V11.3618V5.67763V0H46.373V5.67763Z" fill="#57595B"/>
<path d="M57.7348 5.67763V11.3618V17.0394V22.717V28.4012V34.0788V39.763V45.4406V51.1182V56.8024V62.48V68.1576V73.8418H63.4124V68.1576V62.48V56.8024V51.1182V45.4406V39.763V34.0788V28.4012V22.717V17.0394V11.3618V5.67763V0H57.7348V5.67763Z" fill="#57595B"/>
<path d="M69.0901 0V5.67763V11.3618V17.0394V22.717V28.4012V34.0788V39.763V45.4406V51.1182V56.8024V62.48V68.1576V73.8418H74.7742V68.1576V62.48V56.8024V51.1182V45.4406V39.763V34.0788V28.4012V22.717V17.0394V11.3618V5.67763V0H69.0901Z" fill="#57595B"/>
<path d="M1.95583 87.6351H1.11494V79.4348H1.95583V87.6351ZM3.95702 83.7892C3.78754 83.5871 3.5268 83.4828 3.18131 83.4828C2.93361 83.4828 2.7185 83.535 2.53598 83.6393C2.34694 83.7436 2.20354 83.887 2.10576 84.0695C2.00146 84.252 1.95583 84.4606 1.95583 84.6887H1.68206C1.68206 84.3041 1.75376 83.9587 1.90369 83.6653C2.05361 83.372 2.24917 83.1308 2.50991 82.9548C2.76413 82.7788 3.06398 82.6941 3.39643 82.6941C3.72887 82.6941 4.0222 82.7658 4.27643 82.9027C4.52413 83.0396 4.71969 83.2547 4.85657 83.535C4.99346 83.8153 5.05865 84.1673 5.05865 84.5844V87.6351H4.21776V84.6953C4.21776 84.2976 4.13302 83.9913 3.95702 83.7892Z" fill="#57595B"/>
<path d="M6.54488 83.9128C6.76651 83.5347 7.06636 83.2349 7.44443 83.0198C7.82251 82.8047 8.24621 82.6938 8.71554 82.6938C9.18488 82.6938 9.6151 82.8047 9.99317 83.0198C10.3712 83.2349 10.6646 83.5347 10.8862 83.9128C11.1078 84.2909 11.2187 84.7276 11.2187 85.2165C11.2187 85.7054 11.1078 86.1356 10.8862 86.5137C10.6646 86.8983 10.3647 87.1916 9.99317 87.4133C9.6151 87.6284 9.1914 87.7392 8.71554 87.7392C8.23969 87.7392 7.82251 87.6284 7.44443 87.4133C7.06636 87.1982 6.76651 86.8983 6.54488 86.5137C6.32325 86.1291 6.21243 85.6989 6.21243 85.2165C6.21243 84.7341 6.32325 84.2909 6.54488 83.9128ZM7.28147 86.1096C7.42488 86.3703 7.62043 86.5724 7.86814 86.7223C8.11584 86.8722 8.39614 86.9504 8.71554 86.9504C9.03495 86.9504 9.31525 86.8722 9.56295 86.7223C9.81065 86.5724 10.0062 86.3638 10.1496 86.1096C10.293 85.8488 10.3647 85.5555 10.3647 85.2165C10.3647 84.8776 10.293 84.5777 10.1496 84.317C10.0062 84.0562 9.81065 83.8476 9.56295 83.7042C9.31525 83.5543 9.03495 83.4826 8.71554 83.4826C8.39614 83.4826 8.11584 83.5543 7.86814 83.7042C7.62043 83.8541 7.42488 84.0562 7.28147 84.317C7.13806 84.5777 7.06636 84.8776 7.06636 85.2165C7.06636 85.5555 7.13806 85.8488 7.28147 86.1096Z" fill="#57595B"/>
<path d="M13.4806 86.6376C13.6566 86.8462 13.9108 86.9505 14.2498 86.9505C14.4975 86.9505 14.7126 86.8983 14.8951 86.8005C15.0841 86.6962 15.221 86.5594 15.3253 86.3768C15.4296 86.1943 15.4752 85.9857 15.4752 85.7445V82.8047H16.3161V87.6414H15.4752V86.8853C15.3123 87.1721 15.1167 87.3872 14.8755 87.5306C14.6344 87.674 14.3606 87.7457 14.0347 87.7457C13.5327 87.7457 13.1286 87.5763 12.8287 87.2308C12.5289 86.8853 12.379 86.429 12.379 85.8554V82.8047H13.2198V85.7445C13.2198 86.1291 13.3046 86.429 13.4806 86.6376Z" fill="#57595B"/>
<path d="M18.4281 86.5659C18.552 86.6897 18.7019 86.794 18.8649 86.8657C19.0278 86.9374 19.2104 86.9765 19.4059 86.9765C19.6471 86.9765 19.8296 86.9244 19.9665 86.8135C20.1034 86.7027 20.1686 86.5528 20.1686 86.3638C20.1686 86.1943 20.1164 86.0509 20.0056 85.9401C19.8948 85.8227 19.7579 85.725 19.5884 85.6467C19.419 85.5685 19.243 85.4903 19.0539 85.4186C18.8453 85.3338 18.6302 85.2361 18.4151 85.1187C18.2 85.0014 18.024 84.8515 17.8806 84.669C17.7372 84.4799 17.6655 84.2518 17.6655 83.9715C17.6655 83.6912 17.7437 83.4435 17.8936 83.2544C18.0435 83.0654 18.2391 82.922 18.4803 82.8307C18.7215 82.7395 18.9757 82.6938 19.2299 82.6938C19.4841 82.6938 19.7318 82.7395 19.96 82.8177C20.1881 82.9024 20.3902 83.0133 20.5662 83.1567C20.7422 83.3001 20.8791 83.4565 20.9769 83.639L20.3055 84.0693C20.1751 83.8867 20.0056 83.7368 19.8035 83.6195C19.6015 83.5021 19.3798 83.4435 19.1256 83.4435C18.9496 83.4435 18.7997 83.4826 18.6758 83.5608C18.552 83.639 18.4868 83.7564 18.4868 83.9193C18.4868 84.0432 18.539 84.1605 18.6367 84.2583C18.7345 84.3561 18.8584 84.4473 19.0148 84.519C19.1712 84.5907 19.3277 84.669 19.4972 84.7407C19.7775 84.8515 20.0317 84.9753 20.2664 85.1057C20.4945 85.2361 20.6835 85.3925 20.8204 85.575C20.9573 85.7576 21.0225 85.9922 21.0225 86.279C21.0225 86.6962 20.8726 87.0482 20.5662 87.3285C20.2598 87.6088 19.8622 87.7457 19.3603 87.7457C19.0409 87.7457 18.7475 87.687 18.4868 87.5697C18.2261 87.4524 18.011 87.3024 17.8284 87.1199C17.6524 86.9374 17.5155 86.7549 17.4243 86.5659L18.0892 86.1552C18.187 86.3051 18.2978 86.442 18.4281 86.5659Z" fill="#57595B"/>
<path d="M22.8086 87.4201C22.4631 87.205 22.1893 86.9116 22.0003 86.5336C21.8047 86.1555 21.7135 85.7188 21.7135 85.2168C21.7135 84.7149 21.8112 84.2716 22.0133 83.8936C22.2154 83.5155 22.4957 83.2222 22.8542 83.0136C23.2127 82.805 23.6364 82.7007 24.1123 82.7007C24.5881 82.7007 24.9988 82.7985 25.3378 83.0005C25.6767 83.2026 25.9375 83.4829 26.12 83.8545C26.3025 84.226 26.3938 84.6693 26.3938 85.1777C26.3938 85.2299 26.3938 85.2755 26.3938 85.3276C26.3938 85.3798 26.3938 85.4124 26.3938 85.4254H22.261V84.7084H25.7289L25.3899 85.1908C25.4095 85.1582 25.429 85.0995 25.4551 85.0278C25.4747 84.9561 25.4877 84.8909 25.4877 84.8453C25.4877 84.5585 25.429 84.3108 25.3117 84.1022C25.1944 83.8936 25.0379 83.7241 24.8358 83.6068C24.6338 83.4894 24.3926 83.4308 24.1188 83.4308C23.7929 83.4308 23.5191 83.5025 23.291 83.6328C23.0628 83.7697 22.8868 83.9653 22.763 84.2195C22.6391 84.4737 22.5739 84.7866 22.5674 85.1582C22.5674 85.5362 22.6261 85.8622 22.7434 86.1229C22.8607 86.3836 23.0367 86.5922 23.2714 86.7356C23.4995 86.8725 23.7798 86.9442 24.1123 86.9442C24.4447 86.9442 24.7315 86.8725 24.9858 86.7291C25.24 86.5857 25.4486 86.3641 25.6246 86.0707L26.309 86.501C26.0548 86.9051 25.7419 87.2115 25.3573 87.4201C24.9727 87.6287 24.523 87.733 24.008 87.733C23.5582 87.733 23.1606 87.6287 22.8151 87.4136L22.8086 87.4201Z" fill="#57595B"/>
<path d="M30.6047 83.9128C30.8264 83.5347 31.1262 83.2349 31.5043 83.0198C31.8824 82.8047 32.3061 82.6938 32.7754 82.6938C33.2447 82.6938 33.675 82.8047 34.053 83.0198C34.4311 83.2349 34.7244 83.5347 34.9461 83.9128C35.1677 84.2909 35.2785 84.7276 35.2785 85.2165C35.2785 85.7054 35.1677 86.1356 34.9461 86.5137C34.7244 86.8983 34.4246 87.1916 34.053 87.4133C33.675 87.6284 33.2512 87.7392 32.7754 87.7392C32.2995 87.7392 31.8824 87.6284 31.5043 87.4133C31.1262 87.1982 30.8264 86.8983 30.6047 86.5137C30.3831 86.1291 30.2723 85.6989 30.2723 85.2165C30.2723 84.7341 30.3831 84.2909 30.6047 83.9128ZM31.3413 86.1096C31.4847 86.3703 31.6803 86.5724 31.928 86.7223C32.1757 86.8722 32.456 86.9504 32.7754 86.9504C33.0948 86.9504 33.3751 86.8722 33.6228 86.7223C33.8705 86.5724 34.0661 86.3638 34.2095 86.1096C34.3529 85.8488 34.4246 85.5555 34.4246 85.2165C34.4246 84.8776 34.3529 84.5777 34.2095 84.317C34.0661 84.0562 33.8705 83.8476 33.6228 83.7042C33.3751 83.5543 33.0948 83.4826 32.7754 83.4826C32.456 83.4826 32.1757 83.5543 31.928 83.7042C31.6803 83.8541 31.4847 84.0562 31.3413 84.317C31.1979 84.5777 31.1262 84.8776 31.1262 85.2165C31.1262 85.5555 31.1979 85.8488 31.3413 86.1096Z" fill="#57595B"/>
<path d="M38.4856 82.7982V83.587H36.0673V82.7982H38.4856ZM38.1532 80.2169C38.0619 80.1843 37.9707 80.1713 37.8859 80.1713C37.7816 80.1713 37.6904 80.2039 37.6187 80.2625C37.547 80.3212 37.4883 80.419 37.4427 80.5624C37.4035 80.7058 37.3775 80.8883 37.3775 81.123V87.6415H36.5366V81.0187C36.5366 80.6341 36.5953 80.3212 36.7061 80.0735C36.8169 79.8258 36.9798 79.6433 37.1819 79.5194C37.3905 79.3956 37.6382 79.3369 37.9315 79.3369C38.088 79.3369 38.2249 79.3565 38.3422 79.4021C38.4595 79.4412 38.5638 79.4934 38.6551 79.5585C38.7398 79.6237 38.8115 79.6889 38.8572 79.7606L38.3944 80.4516C38.3227 80.3342 38.2444 80.256 38.1467 80.2234L38.1532 80.2169Z" fill="#57595B"/>
<path d="M42.8074 82.7986L44.0133 85.9405L45.3301 82.427L46.7381 85.96L47.957 82.7986H48.9022L46.7967 88.0003L45.3366 84.4803L43.9612 88.0003L41.8622 82.7986H42.8074Z" fill="#57595B"/>
<path d="M49.9191 80.3929C50.0364 80.2821 50.1668 80.2234 50.3233 80.2234C50.4797 80.2234 50.6231 80.2821 50.7339 80.3929C50.8447 80.5037 50.9034 80.6406 50.9034 80.8035C50.9034 80.9665 50.8447 81.0904 50.7339 81.2077C50.6231 81.325 50.4862 81.3837 50.3233 81.3837C50.1603 81.3837 50.0364 81.325 49.9191 81.2077C49.8018 81.0904 49.7431 80.96 49.7431 80.8035C49.7431 80.6471 49.8018 80.5037 49.9191 80.3929ZM50.747 82.7982V87.6349H49.9061V82.7982H50.747Z" fill="#57595B"/>
<path d="M53.0154 86.5659C53.1393 86.6897 53.2892 86.794 53.4521 86.8657C53.6151 86.9374 53.7976 86.9765 53.9932 86.9765C54.2344 86.9765 54.4169 86.9244 54.5538 86.8135C54.6907 86.7027 54.7558 86.5528 54.7558 86.3638C54.7558 86.1943 54.7037 86.0509 54.5929 85.9401C54.4821 85.8227 54.3452 85.725 54.1757 85.6467C54.0062 85.5685 53.8302 85.4903 53.6412 85.4186C53.4326 85.3338 53.2175 85.2361 53.0024 85.1187C52.7873 85.0014 52.6113 84.8515 52.4678 84.669C52.3244 84.4799 52.2527 84.2518 52.2527 83.9715C52.2527 83.6912 52.331 83.4435 52.4809 83.2544C52.6308 83.0654 52.8264 82.922 53.0676 82.8307C53.3087 82.7395 53.563 82.6938 53.8172 82.6938C54.0714 82.6938 54.3191 82.7395 54.5473 82.8177C54.7754 82.9024 54.9775 83.0133 55.1535 83.1567C55.3295 83.3001 55.4664 83.4565 55.5641 83.639L54.8927 84.0693C54.7624 83.8867 54.5929 83.7368 54.3908 83.6195C54.1887 83.5021 53.9671 83.4435 53.7129 83.4435C53.5369 83.4435 53.387 83.4826 53.2631 83.5608C53.1393 83.639 53.0741 83.7564 53.0741 83.9193C53.0741 84.0432 53.1262 84.1605 53.224 84.2583C53.3218 84.3561 53.4456 84.4473 53.6021 84.519C53.7585 84.5907 53.915 84.669 54.0844 84.7407C54.3647 84.8515 54.619 84.9753 54.8536 85.1057C55.0818 85.2361 55.2708 85.3925 55.4077 85.575C55.5446 85.7576 55.6098 85.9922 55.6098 86.279C55.6098 86.6962 55.4598 87.0482 55.1535 87.3285C54.8471 87.6088 54.4495 87.7457 53.9476 87.7457C53.6281 87.7457 53.3348 87.687 53.0741 87.5697C52.8133 87.4524 52.5982 87.3024 52.4157 87.1199C52.2397 86.9374 52.1028 86.7549 52.0116 86.5659L52.6764 86.1552C52.7742 86.3051 52.885 86.442 53.0154 86.5659Z" fill="#57595B"/>
<path d="M56.6201 83.8674C56.8352 83.4893 57.1286 83.2025 57.4936 83.0004C57.8586 82.7984 58.2563 82.6941 58.693 82.6941C59.0972 82.6941 59.4557 82.7984 59.7555 83.0004C60.0554 83.2025 60.2966 83.4959 60.4661 83.8674C60.6355 84.239 60.7268 84.6953 60.7268 85.2167C60.7268 85.7382 60.6421 86.1815 60.4661 86.5596C60.2901 86.9376 60.0554 87.231 59.7555 87.433C59.4557 87.6351 59.1037 87.7394 58.693 87.7394C58.2563 87.7394 57.8586 87.6351 57.4936 87.433C57.1286 87.231 56.8418 86.9376 56.6201 86.5596C56.405 86.1815 56.2942 85.7317 56.2942 85.2167C56.2942 84.7018 56.405 84.239 56.6201 83.8674ZM57.3698 86.1619C57.5197 86.4227 57.7218 86.6182 57.976 86.7486C58.2302 86.879 58.504 86.9507 58.7973 86.9507C59.045 86.9507 59.2862 86.8855 59.5209 86.7486C59.7555 86.6117 59.9576 86.4227 60.1075 86.1619C60.264 85.9012 60.3357 85.5883 60.3357 85.2167C60.3357 84.8452 60.2575 84.5323 60.1075 84.2716C59.9511 84.0108 59.7555 83.8153 59.5209 83.6849C59.2862 83.5545 59.0385 83.4828 58.7973 83.4828C58.504 83.4828 58.2302 83.548 57.976 83.6849C57.7218 83.8218 57.5197 84.0108 57.3698 84.2716C57.2198 84.5323 57.1416 84.8452 57.1416 85.2167C57.1416 85.5883 57.2198 85.9012 57.3698 86.1619ZM61.1831 79.4348V87.6351H60.3422V79.4348H61.1831Z" fill="#57595B"/>
<path d="M62.6172 83.9128C62.8388 83.5347 63.1387 83.2349 63.5167 83.0198C63.8948 82.8047 64.3185 82.6938 64.7878 82.6938C65.2572 82.6938 65.6874 82.8047 66.0655 83.0198C66.4435 83.2349 66.7369 83.5347 66.9585 83.9128C67.1801 84.2909 67.291 84.7276 67.291 85.2165C67.291 85.7054 67.1801 86.1356 66.9585 86.5137C66.7369 86.8983 66.437 87.1916 66.0655 87.4133C65.6874 87.6284 65.2637 87.7392 64.7878 87.7392C64.312 87.7392 63.8948 87.6284 63.5167 87.4133C63.1387 87.1982 62.8388 86.8983 62.6172 86.5137C62.3955 86.1291 62.2847 85.6989 62.2847 85.2165C62.2847 84.7341 62.3955 84.2909 62.6172 83.9128ZM63.3538 86.1096C63.4972 86.3703 63.6927 86.5724 63.9404 86.7223C64.1881 86.8722 64.4684 86.9504 64.7878 86.9504C65.1072 86.9504 65.3875 86.8722 65.6352 86.7223C65.883 86.5724 66.0785 86.3638 66.2219 86.1096C66.3653 85.8488 66.437 85.5555 66.437 85.2165C66.437 84.8776 66.3653 84.5777 66.2219 84.317C66.0785 84.0562 65.883 83.8476 65.6352 83.7042C65.3875 83.5543 65.1072 83.4826 64.7878 83.4826C64.4684 83.4826 64.1881 83.5543 63.9404 83.7042C63.6927 83.8541 63.4972 84.0562 63.3538 84.317C63.2104 84.5777 63.1387 84.8776 63.1387 85.2165C63.1387 85.5555 63.2104 85.8488 63.3538 86.1096Z" fill="#57595B"/>
<path d="M75.0676 87.6349H74.2267V84.695C74.2267 84.2844 74.1484 83.978 73.9985 83.7824C73.8486 83.5869 73.6139 83.4891 73.301 83.4891C73.0729 83.4891 72.8708 83.5347 72.7013 83.6325C72.5318 83.7238 72.4015 83.8672 72.3102 84.0497C72.219 84.2322 72.1733 84.4473 72.1733 84.7016V87.6414H71.3324V84.7016C71.3324 84.2909 71.2542 83.9845 71.1043 83.789C70.9544 83.5934 70.7197 83.4956 70.4068 83.4956C70.1787 83.4956 69.9766 83.5413 69.8071 83.639C69.6376 83.7303 69.5073 83.8737 69.416 84.0562C69.3247 84.2387 69.2791 84.4538 69.2791 84.7081V87.6479H68.4382V82.8112H69.2791V83.5152C69.429 83.2414 69.6115 83.0393 69.8332 82.9024C70.0548 82.7721 70.3156 82.7004 70.6154 82.7004C70.9544 82.7004 71.2412 82.7786 71.4824 82.935C71.7236 83.0915 71.8996 83.3131 72.0104 83.5999C72.1798 83.3001 72.3884 83.0719 72.6427 82.922C72.8969 82.7721 73.1837 82.6938 73.5031 82.6938C73.8225 82.6938 74.1158 82.7655 74.344 82.9155C74.5787 83.0654 74.7547 83.2805 74.872 83.5608C74.9893 83.8411 75.0545 84.1866 75.0545 84.5842V87.6349H75.0676Z" fill="#57595B"/>
</g>
<defs>
<clipPath id="clip0_704_14827">
<rect width="74.1351" height="88" fill="white" transform="translate(0.932434)"/>
</clipPath>
</defs>
</svg>
