<svg width="32" height="26" viewBox="0 0 32 26" fill="none" xmlns="http://www.w3.org/2000/svg">
<path d="M31.69 3C30.535 3.525 29.29 3.87 28 4.035C29.32 3.24 30.34 1.98 30.82 0.465C29.575 1.215 28.195 1.74 26.74 2.04C25.555 0.75 23.89 0 22 0C18.475 0 15.595 2.88 15.595 6.435C15.595 6.945 15.655 7.44 15.76 7.905C10.42 7.635 5.665 5.07 2.5 1.185C1.945 2.13 1.63 3.24 1.63 4.41C1.63 6.645 2.755 8.625 4.495 9.75C3.43 9.75 2.44 9.45 1.57 9V9.045C1.57 12.165 3.79 14.775 6.73 15.36C5.78609 15.6183 4.79514 15.6543 3.835 15.465C4.24241 16.7437 5.0403 17.8626 6.11652 18.6644C7.19274 19.4662 8.49317 19.9105 9.835 19.935C7.56044 21.7357 4.74099 22.709 1.84 22.695C1.33 22.695 0.819998 22.665 0.309998 22.605C3.16 24.435 6.55 25.5 10.18 25.5C22 25.5 28.495 15.69 28.495 7.185C28.495 6.9 28.495 6.63 28.48 6.345C29.74 5.445 30.82 4.305 31.69 3Z" fill="#C1C1C3"/>
</svg>
